<?xml version="1.0" encoding="UTF-8" standalone="no"?>
<!DOCTYPE svg PUBLIC "-//W3C//DTD SVG 1.1//EN" "http://www.w3.org/Graphics/SVG/1.1/DTD/svg11.dtd">
<svg width="100%" height="100%" viewBox="0 0 282 285" version="1.1" xmlns="http://www.w3.org/2000/svg" xmlns:xlink="http://www.w3.org/1999/xlink" xml:space="preserve" xmlns:serif="http://www.serif.com/" style="fill-rule:evenodd;clip-rule:evenodd;stroke-linejoin:round;stroke-miterlimit:2;">
    <g transform="matrix(1,0,0,1,-58.82,-56.79)">
        <g>
            <path d="M232.81,174.11L232.84,174.09C232.68,173.97 232.53,173.84 232.37,173.72L232.81,174.11Z" style="fill:white;fill-rule:nonzero;"/>
            <path d="M232.18,166.67L232.48,166.94L235.54,169.65L235.62,169.71C235.78,169.83 235.93,169.96 236.09,170.08C248.16,179.86 263.87,185.31 280.85,184.09C312.2,181.85 337.54,156.47 339.74,125.12C342.35,87.84 312.88,56.79 276.16,56.79C258.75,56.79 242.97,63.78 231.48,75.09L231.37,75.2L227.58,79.27L214.79,100.25C195.93,131.2 170.61,157.54 140.73,177.58L140.73,59.2L98.24,59.2C76.47,59.2 58.82,76.85 58.82,98.62L58.82,307.46C58.82,326.1 73.93,341.2 92.56,341.2L140.73,341.2L140.73,199.78C173.92,198.68 205.95,187.11 232.19,166.66L232.18,166.67Z" style="fill:white;fill-rule:nonzero;"/>
            <path d="M339.76,278.21C338.03,249.31 318.08,225.92 293.4,223.85C280.03,222.73 267.66,227.75 258.16,236.76C258.04,236.88 257.91,236.99 257.79,237.11L257.73,237.17L255.32,239.67L255.09,239.91C233.65,220.35 207.31,209.59 180.13,209.3L150.85,208.99L160.37,214.47C193.86,233.76 221.96,263.82 241.38,301.14L251.45,320.48L254.43,324.23L254.52,324.33C263.57,334.75 275.99,341.2 289.7,341.2C318.61,341.2 341.81,312.57 339.75,278.2L339.76,278.21Z" style="fill:white;fill-rule:nonzero;"/>
        </g>
    </g>
</svg>
